<svg aria-hidden="true" style="position: absolute; width: 0; height: 0; overflow: hidden;" version="1.1" xmlns="http://www.w3.org/2000/svg" xmlns:xlink="http://www.w3.org/1999/xlink">
<defs>
<symbol id="icon-monitor" viewBox="0 0 32 32">
<path d="M30 24c0 0-8.25 0-10 0s2 6 2 6c0 1.104-0.896 2-2 2h-8c-1.104 0-2-0.896-2-2 0 0 3.812-6 2-6s-10 0-10 0c-1.104 0-2-0.896-2-2v-20c0-1.104 0.896-2 2-2h28c1.104 0 2 0.896 2 2v20c0 1.104-0.896 2-2 2zM16 23c1.104 0 2-0.896 2-2s-0.896-2-2-2-2 0.896-2 2 0.896 2 2 2zM30 4c0-1.104-0.896-2-2-2h-24c-1.104 0-2 0.896-2 2v12c0 1.104 0.896 2 2 2h24c1.104 0 2-0.896 2-2v-12z"></path>
</symbol>
<symbol id="icon-user" viewBox="0 0 32 32">
<path d="M18 22.082v-1.649c2.203-1.241 4-4.337 4-7.432 0-4.971 0-9-6-9s-6 4.029-6 9c0 3.096 1.797 6.191 4 7.432v1.649c-6.784 0.555-12 3.888-12 7.918h28c0-4.030-5.216-7.364-12-7.918z"></path>
</symbol>
<symbol id="icon-menu" viewBox="0 0 20 20">
<path d="M16.4 9h-12.8c-0.552 0-0.6 0.447-0.6 1s0.048 1 0.6 1h12.8c0.552 0 0.6-0.447 0.6-1s-0.048-1-0.6-1zM16.4 13h-12.8c-0.552 0-0.6 0.447-0.6 1s0.048 1 0.6 1h12.8c0.552 0 0.6-0.447 0.6-1s-0.048-1-0.6-1zM3.6 7h12.8c0.552 0 0.6-0.447 0.6-1s-0.048-1-0.6-1h-12.8c-0.552 0-0.6 0.447-0.6 1s0.048 1 0.6 1z"></path>
</symbol>
<symbol id="icon-x" viewBox="0 0 24 24">
<path d="M5.293 6.707l5.293 5.293-5.293 5.293c-0.391 0.391-0.391 1.024 0 1.414s1.024 0.391 1.414 0l5.293-5.293 5.293 5.293c0.391 0.391 1.024 0.391 1.414 0s0.391-1.024 0-1.414l-5.293-5.293 5.293-5.293c0.391-0.391 0.391-1.024 0-1.414s-1.024-0.391-1.414 0l-5.293 5.293-5.293-5.293c-0.391-0.391-1.024-0.391-1.414 0s-0.391 1.024 0 1.414z"></path>
</symbol>
<symbol id="icon-plus" viewBox="0 0 24 24">
<path d="M5 13h6v6c0 0.552 0.448 1 1 1s1-0.448 1-1v-6h6c0.552 0 1-0.448 1-1s-0.448-1-1-1h-6v-6c0-0.552-0.448-1-1-1s-1 0.448-1 1v6h-6c-0.552 0-1 0.448-1 1s0.448 1 1 1z"></path>
</symbol>
<symbol id="icon-settings" viewBox="0 0 24 24">
<path d="M9.998 8.498c2.039 0 3.702 1.531 3.95 3.502h3.516c-0.033-0.472-0.097-0.935-0.212-1.379l2.841-1.64-2.001-3.466-2.837 1.638c-0.895-0.881-2.010-1.532-3.255-1.877v-3.278h-4.002v3.278c-1.245 0.344-2.361 0.996-3.256 1.876l-2.836-1.637-2.001 3.466 2.839 1.639c-0.155 0.602-0.247 1.228-0.247 1.878s0.091 1.277 0.247 1.878l-2.839 1.64 2.001 3.465 2.835-1.637c0.895 0.881 2.012 1.532 3.257 1.876v3.278h4.002v-7.055c-0.591 0.344-1.269 0.556-2.002 0.556-2.209 0-4-1.791-4-4s1.791-4.001 4-4.001zM22.998 18c0-0.37-0.066-0.722-0.161-1.062l1.857-1.072-0.999-1.73-1.844 1.064c-0.501-0.51-1.14-0.875-1.853-1.061v-2.139h-1.998v2.139c-0.715 0.184-1.354 0.549-1.856 1.060l-1.841-1.063-0.999 1.73 1.853 1.069c-0.095 0.342-0.162 0.694-0.162 1.065s0.067 0.724 0.162 1.065l-1.853 1.069 0.999 1.73 1.841-1.063c0.502 0.511 1.142 0.876 1.856 1.060v2.139h1.998v-2.14c0.713-0.186 1.352-0.551 1.853-1.061l1.845 1.065 0.999-1.73-1.857-1.072c0.094-0.34 0.16-0.692 0.16-1.062zM18.996 19.998c-1.104 0-1.998-0.895-1.998-1.998s0.895-1.998 1.998-1.998 1.998 0.895 1.998 1.998-0.894 1.998-1.998 1.998z"></path>
</symbol>
<symbol id="icon-x-circle" viewBox="0 0 24 24">
<path d="M23 12c0-3.037-1.232-5.789-3.222-7.778s-4.741-3.222-7.778-3.222-5.789 1.232-7.778 3.222-3.222 4.741-3.222 7.778 1.232 5.789 3.222 7.778 4.741 3.222 7.778 3.222 5.789-1.232 7.778-3.222 3.222-4.741 3.222-7.778zM21 12c0 2.486-1.006 4.734-2.636 6.364s-3.878 2.636-6.364 2.636-4.734-1.006-6.364-2.636-2.636-3.878-2.636-6.364 1.006-4.734 2.636-6.364 3.878-2.636 6.364-2.636 4.734 1.006 6.364 2.636 2.636 3.878 2.636 6.364zM8.293 9.707l2.293 2.293-2.293 2.293c-0.391 0.391-0.391 1.024 0 1.414s1.024 0.391 1.414 0l2.293-2.293 2.293 2.293c0.391 0.391 1.024 0.391 1.414 0s0.391-1.024 0-1.414l-2.293-2.293 2.293-2.293c0.391-0.391 0.391-1.024 0-1.414s-1.024-0.391-1.414 0l-2.293 2.293-2.293-2.293c-0.391-0.391-1.024-0.391-1.414 0s-0.391 1.024 0 1.414z"></path>
</symbol>
<symbol id="icon-floppy-o" viewBox="0 0 24 28">
<path d="M6 24h12v-6h-12v6zM20 24h2v-14c0-0.297-0.266-0.938-0.469-1.141l-4.391-4.391c-0.219-0.219-0.828-0.469-1.141-0.469v6.5c0 0.828-0.672 1.5-1.5 1.5h-9c-0.828 0-1.5-0.672-1.5-1.5v-6.5h-2v20h2v-6.5c0-0.828 0.672-1.5 1.5-1.5h13c0.828 0 1.5 0.672 1.5 1.5v6.5zM14 9.5v-5c0-0.266-0.234-0.5-0.5-0.5h-3c-0.266 0-0.5 0.234-0.5 0.5v5c0 0.266 0.234 0.5 0.5 0.5h3c0.266 0 0.5-0.234 0.5-0.5zM24 10v14.5c0 0.828-0.672 1.5-1.5 1.5h-21c-0.828 0-1.5-0.672-1.5-1.5v-21c0-0.828 0.672-1.5 1.5-1.5h14.5c0.828 0 1.969 0.469 2.562 1.062l4.375 4.375c0.594 0.594 1.062 1.734 1.062 2.562z"></path>
</symbol>
<symbol id="icon-repeat" viewBox="0 0 24 28">
<path d="M24 4v7c0 0.547-0.453 1-1 1h-7c-0.406 0-0.766-0.25-0.922-0.625-0.156-0.359-0.078-0.797 0.219-1.078l2.156-2.156c-1.469-1.359-3.406-2.141-5.453-2.141-4.406 0-8 3.594-8 8s3.594 8 8 8c2.484 0 4.781-1.125 6.312-3.109 0.078-0.109 0.219-0.172 0.359-0.187 0.141 0 0.281 0.047 0.391 0.141l2.141 2.156c0.187 0.172 0.187 0.469 0.031 0.672-2.281 2.75-5.656 4.328-9.234 4.328-6.609 0-12-5.391-12-12s5.391-12 12-12c3.078 0 6.062 1.234 8.266 3.313l2.031-2.016c0.281-0.297 0.719-0.375 1.094-0.219 0.359 0.156 0.609 0.516 0.609 0.922z"></path>
</symbol>
<symbol id="icon-refresh" viewBox="0 0 24 28">
<path d="M23.609 16.5c0 0.031 0 0.078-0.016 0.109-1.328 5.531-5.891 9.391-11.656 9.391-3.047 0-6-1.203-8.219-3.313l-2.016 2.016c-0.187 0.187-0.438 0.297-0.703 0.297-0.547 0-1-0.453-1-1v-7c0-0.547 0.453-1 1-1h7c0.547 0 1 0.453 1 1 0 0.266-0.109 0.516-0.297 0.703l-2.141 2.141c1.469 1.375 3.422 2.156 5.437 2.156 2.781 0 5.359-1.437 6.813-3.813 0.375-0.609 0.562-1.203 0.828-1.828 0.078-0.219 0.234-0.359 0.469-0.359h3c0.281 0 0.5 0.234 0.5 0.5zM24 4v7c0 0.547-0.453 1-1 1h-7c-0.547 0-1-0.453-1-1 0-0.266 0.109-0.516 0.297-0.703l2.156-2.156c-1.484-1.375-3.437-2.141-5.453-2.141-2.781 0-5.359 1.437-6.813 3.813-0.375 0.609-0.562 1.203-0.828 1.828-0.078 0.219-0.234 0.359-0.469 0.359h-3.109c-0.281 0-0.5-0.234-0.5-0.5v-0.109c1.344-5.547 5.953-9.391 11.719-9.391 3.063 0 6.047 1.219 8.266 3.313l2.031-2.016c0.187-0.187 0.438-0.297 0.703-0.297 0.547 0 1 0.453 1 1z"></path>
</symbol>
<symbol id="icon-lab" viewBox="0 0 32 32">
<path d="M29.884 25.14l-9.884-16.47v-6.671h1c0.55 0 1-0.45 1-1s-0.45-1-1-1h-10c-0.55 0-1 0.45-1 1s0.45 1 1 1h1v6.671l-9.884 16.47c-2.264 3.773-0.516 6.86 3.884 6.86h20c4.4 0 6.148-3.087 3.884-6.86zM7.532 20l6.468-10.779v-7.221h4v7.221l6.468 10.779h-16.935z"></path>
</symbol>
<symbol id="icon-cog" viewBox="0 0 32 32">
<path d="M32 17.969v-4l-4.781-1.992c-0.133-0.375-0.273-0.738-0.445-1.094l1.93-4.805-2.829-2.828-4.762 1.961c-0.363-0.176-0.734-0.324-1.117-0.461l-2.027-4.75h-4l-1.977 4.734c-0.398 0.141-0.781 0.289-1.16 0.469l-4.754-1.91-2.828 2.828 1.938 4.711c-0.188 0.387-0.34 0.781-0.485 1.188l-4.703 2.011v4l4.707 1.961c0.145 0.406 0.301 0.801 0.488 1.188l-1.902 4.742 2.828 2.828 4.723-1.945c0.379 0.18 0.766 0.324 1.164 0.461l2.023 4.734h4l1.98-4.758c0.379-0.141 0.754-0.289 1.113-0.461l4.797 1.922 2.828-2.828-1.969-4.773c0.168-0.359 0.305-0.723 0.438-1.094l4.782-2.039zM15.969 22c-3.312 0-6-2.688-6-6s2.688-6 6-6 6 2.688 6 6-2.688 6-6 6z"></path>
</symbol>
<symbol id="icon-code" viewBox="0 0 32 32">
<path d="M0 19.256l10.042 6.457v-4.661l-5.979-3.692 5.979-3.692v-4.693l-10.042 6.49v3.791zM12.166 28h3.456l5.064-24h-3.479l-5.041 24zM21.959 8.975v4.693l5.977 3.692-5.977 3.691v4.661l10.041-6.456v-3.791l-10.041-6.49z"></path>
</symbol>
<symbol id="icon-search" viewBox="0 0 32 32">
<path d="M31.715 28.953c0.381 0.381 0.381 0.999 0 1.381l-1.381 1.381c-0.382 0.381-1 0.381-1.381 0l-9.668-9.668c-0.105-0.105-0.175-0.229-0.222-0.361-1.983 1.449-4.418 2.314-7.063 2.314-6.627 0-12-5.373-12-12s5.373-12 12-12c6.627 0 12 5.373 12 12 0 2.645-0.865 5.080-2.314 7.063 0.132 0.047 0.256 0.116 0.361 0.222l9.668 9.668zM12 4c-4.418 0-8 3.582-8 8s3.582 8 8 8 8-3.582 8-8c0-4.418-3.582-8-8-8z"></path>
</symbol>
<symbol id="icon-trash" viewBox="0 0 20 20">
<path d="M6 2l2-2h4l2 2h4v2h-16v-2h4zM3 6h14l-1 14h-12l-1-14zM8 8v10h1v-10h-1zM11 8v10h1v-10h-1z"></path>
</symbol>
<symbol id="icon-users" viewBox="0 0 24 24">
<path d="M23.588 19.96c-1.459-3.359-4.841-5.31-7.296-6.144 1.504-1.229 2.392-3.547 2.392-6.583 0-4.035-3.373-5.102-5.157-5.102-0.287 0-0.617 0.032-0.965 0.095-0.958-0.861-2.225-1.226-3.233-1.226-1.864 0-4.637 1.222-4.637 4.587 0 2.678 0.782 4.729 2.109 5.833-2.088 0.546-4.932 1.894-6.389 5.249l-0.412 0.949 0.963 0.38c0.086 0.034 1.27 0.488 3.062 0.889-0.205 0.348-0.398 0.699-0.561 1.073l-0.413 0.949 0.963 0.38c0.178 0.069 4.401 1.711 9.512 1.711s9.334-1.642 9.512-1.711l0.962-0.38-0.412-0.949zM16.684 7.234c0 3.431-1.21 5.562-3.157 5.562s-3.157-2.131-3.157-5.562c0-2.92 2.635-3.096 3.152-3.102 0.527 0.006 3.162 0.182 3.162 3.102zM9.329 3c0.101 0 0.501 0.017 0.958 0.165-1.070 0.77-1.917 2.046-1.917 4.069 0 1.099 0.119 2.102 0.338 2.996-1.472-0.469-2.016-2.615-2.016-4.643 0-2.431 2.202-2.582 2.637-2.587zM9.329 13.046c0.012 0 0.29 0.006 0.726 0.062 0.436 0.538 0.949 0.954 1.527 1.239-1.574 0.315-3.816 1.067-5.634 2.865-1.31-0.211-2.432-0.494-3.185-0.72 2.147-3.38 6.374-3.445 6.566-3.446zM13.526 21c-3.276 0-6.567-0.75-8.071-1.214 0.237-0.687 0.986-1.595 1.246-1.907 2.793-2.705 6.784-2.762 6.822-2.762 0.008 0 0.729 0.011 1.755 0.216 1.782 0.45 4.55 2.095 5.974 4.451-1.503 0.464-4.445 1.216-7.726 1.216z"></path>
</symbol>
<symbol id="icon-edit" viewBox="0 0 28 28">
<path d="M13.875 18.5l1.813-1.813-2.375-2.375-1.813 1.813v0.875h1.5v1.5h0.875zM20.75 7.25c-0.141-0.141-0.375-0.125-0.516 0.016l-5.469 5.469c-0.141 0.141-0.156 0.375-0.016 0.516s0.375 0.125 0.516-0.016l5.469-5.469c0.141-0.141 0.156-0.375 0.016-0.516zM22 16.531v2.969c0 2.484-2.016 4.5-4.5 4.5h-13c-2.484 0-4.5-2.016-4.5-4.5v-13c0-2.484 2.016-4.5 4.5-4.5h13c0.625 0 1.25 0.125 1.828 0.391 0.141 0.063 0.25 0.203 0.281 0.359 0.031 0.172-0.016 0.328-0.141 0.453l-0.766 0.766c-0.141 0.141-0.328 0.187-0.5 0.125-0.234-0.063-0.469-0.094-0.703-0.094h-13c-1.375 0-2.5 1.125-2.5 2.5v13c0 1.375 1.125 2.5 2.5 2.5h13c1.375 0 2.5-1.125 2.5-2.5v-1.969c0-0.125 0.047-0.25 0.141-0.344l1-1c0.156-0.156 0.359-0.187 0.547-0.109s0.313 0.25 0.313 0.453zM20.5 5l4.5 4.5-10.5 10.5h-4.5v-4.5zM27.438 7.063l-1.437 1.437-4.5-4.5 1.437-1.437c0.578-0.578 1.547-0.578 2.125 0l2.375 2.375c0.578 0.578 0.578 1.547 0 2.125z"></path>
</symbol>
<symbol id="icon-check_circle_outline" viewBox="0 0 24 24">
<path d="M12 20.016q3.281 0 5.648-2.367t2.367-5.648-2.367-5.648-5.648-2.367-5.648 2.367-2.367 5.648 2.367 5.648 5.648 2.367zM12 2.016q4.125 0 7.055 2.93t2.93 7.055-2.93 7.055-7.055 2.93-7.055-2.93-2.93-7.055 2.93-7.055 7.055-2.93zM16.594 7.594l1.406 1.406-8.016 8.016-4.969-5.016 1.406-1.406 3.563 3.563z"></path>
</symbol>
<symbol id="icon-long-arrow-up" viewBox="0 0 12 28">
<path d="M11.953 7.703c-0.078 0.172-0.25 0.297-0.453 0.297h-3.5v19.5c0 0.281-0.219 0.5-0.5 0.5h-3c-0.281 0-0.5-0.219-0.5-0.5v-19.5h-3.5c-0.203 0-0.375-0.109-0.453-0.297s-0.047-0.391 0.078-0.547l5.469-6c0.094-0.094 0.219-0.156 0.359-0.156v0c0.141 0 0.281 0.063 0.375 0.156l5.547 6c0.125 0.156 0.156 0.359 0.078 0.547z"></path>
</symbol>
<symbol id="icon-long-arrow-down" viewBox="0 0 12 28">
<path d="M11.953 20.297c0.078 0.187 0.047 0.391-0.078 0.547l-5.469 6c-0.094 0.094-0.219 0.156-0.359 0.156v0c-0.141 0-0.281-0.063-0.375-0.156l-5.547-6c-0.125-0.156-0.156-0.359-0.078-0.547 0.078-0.172 0.25-0.297 0.453-0.297h3.5v-19.5c0-0.281 0.219-0.5 0.5-0.5h3c0.281 0 0.5 0.219 0.5 0.5v19.5h3.5c0.203 0 0.375 0.109 0.453 0.297z"></path>
</symbol>
<symbol id="icon-pin-outline" viewBox="0 0 24 24">
<path d="M21.436 7.586l-3.998-4.020c-0.752-0.756-2.063-0.764-2.83-0.006-0.196 0.196-0.35 0.436-0.418 0.629-0.653 1.362-1.354 2.215-2.254 2.727l-0.217 0.105c-0.968 0.485-2.285 0.979-4.719 0.979-0.266 0-0.521 0.052-0.766 0.152-0.484 0.202-0.879 0.595-1.082 1.084-0.199 0.484-0.199 1.041 0 1.525 0.104 0.249 0.25 0.471 0.435 0.651l3.235 3.235-3.822 5.353 5.352-3.822 3.227 3.227c0.186 0.189 0.406 0.339 0.656 0.441 0.247 0.103 0.503 0.154 0.766 0.154s0.519-0.052 0.765-0.154c0.498-0.205 0.883-0.592 1.080-1.078 0.103-0.242 0.155-0.507 0.155-0.768 0-2.436 0.494-3.752 0.978-4.721 0.496-0.992 1.369-1.748 2.754-2.414 0.271-0.104 0.51-0.256 0.711-0.457 0.772-0.782 0.768-2.051-0.008-2.822zM16.188 12.387c-0.819 1.643-1.188 3.37-1.195 5.604l-7.993-7.991c2.139 0 3.814-0.335 5.396-1.084l0.235-0.105c1.399-0.699 2.468-1.893 3.388-3.834l3.924 4.051c-1.863 0.893-3.056 1.96-3.755 3.359z"></path>
</symbol>
<symbol id="icon-group_work" viewBox="0 0 24 24">
<path d="M15.984 17.484q1.031 0 1.781-0.727t0.75-1.758-0.75-1.758-1.781-0.727-1.758 0.727-0.727 1.758 0.727 1.758 1.758 0.727zM9.516 8.016q0 1.031 0.727 1.758t1.758 0.727 1.758-0.727 0.727-1.758-0.727-1.781-1.758-0.75-1.758 0.75-0.727 1.781zM8.016 17.484q1.031 0 1.758-0.727t0.727-1.758-0.727-1.758-1.758-0.727-1.781 0.727-0.75 1.758 0.75 1.758 1.781 0.727zM12 2.016q4.125 0 7.055 2.93t2.93 7.055-2.93 7.055-7.055 2.93-7.055-2.93-2.93-7.055 2.93-7.055 7.055-2.93z"></path>
</symbol>
<symbol id="icon-magnifying-glass" viewBox="0 0 20 20">
<path d="M17.545 15.467l-3.779-3.779c0.57-0.935 0.898-2.035 0.898-3.21 0-3.417-2.961-6.377-6.378-6.377s-6.186 2.769-6.186 6.186c0 3.416 2.961 6.377 6.377 6.377 1.137 0 2.2-0.309 3.115-0.844l3.799 3.801c0.372 0.371 0.975 0.371 1.346 0l0.943-0.943c0.371-0.371 0.236-0.84-0.135-1.211zM4.004 8.287c0-2.366 1.917-4.283 4.282-4.283s4.474 2.107 4.474 4.474c0 2.365-1.918 4.283-4.283 4.283s-4.473-2.109-4.473-4.474z"></path>
</symbol>
<symbol id="icon-equalizer2" viewBox="0 0 32 32">
<path d="M28 14h0.5c0.825 0 1.5-0.675 1.5-1.5v-5c0-0.825-0.675-1.5-1.5-1.5h-0.5v-6h-4v6h-0.5c-0.825 0-1.5 0.675-1.5 1.5v5c0 0.825 0.675 1.5 1.5 1.5h0.5v18h4v-18zM24 8h4v4h-4v-4zM18.5 26c0.825 0 1.5-0.675 1.5-1.5v-5c0-0.825-0.675-1.5-1.5-1.5h-0.5v-18h-4v18h-0.5c-0.825 0-1.5 0.675-1.5 1.5v5c0 0.825 0.675 1.5 1.5 1.5h0.5v6h4v-6h0.5zM14 20h4v4h-4v-4zM8.5 14c0.825 0 1.5-0.675 1.5-1.5v-5c0-0.825-0.675-1.5-1.5-1.5h-0.5v-6h-4v6h-0.5c-0.825 0-1.5 0.675-1.5 1.5v5c0 0.825 0.675 1.5 1.5 1.5h0.5v18h4v-18h0.5zM4 8h4v4h-4v-4z"></path>
</symbol>
<symbol id="icon-format_list_numbered" viewBox="0 0 24 24">
<path d="M6.984 12.984v-1.969h14.016v1.969h-14.016zM6.984 18.984v-1.969h14.016v1.969h-14.016zM6.984 5.016h14.016v1.969h-14.016v-1.969zM2.016 11.016v-1.031h3v0.938l-1.828 2.063h1.828v1.031h-3v-0.938l1.781-2.063h-1.781zM3 8.016v-3h-0.984v-1.031h1.969v4.031h-0.984zM2.016 17.016v-1.031h3v4.031h-3v-1.031h1.969v-0.469h-0.984v-1.031h0.984v-0.469h-1.969z"></path>
</symbol>
<symbol id="icon-add" viewBox="0 0 32 32">
<path d="M26.5 27h-3c-0.276 0-0.5-0.224-0.5-0.5s0.224-0.5 0.5-0.5h2.5v-2.5c0-0.276 0.224-0.5 0.5-0.5 0.275 0 0.5 0.224 0.5 0.5v3c0 0.276-0.225 0.5-0.5 0.5zM26.5 21c-0.276 0-0.5-0.224-0.5-0.5v-3c0-0.276 0.224-0.5 0.5-0.5 0.275 0 0.5 0.224 0.5 0.5v3c0 0.276-0.225 0.5-0.5 0.5zM26.5 15c-0.276 0-0.5-0.224-0.5-0.5v-3c0-0.276 0.224-0.5 0.5-0.5 0.275 0 0.5 0.224 0.5 0.5v3c0 0.276-0.225 0.5-0.5 0.5zM26.5 9c-0.276 0-0.5-0.224-0.5-0.5v-2.5h-2.5c-0.276 0-0.5-0.224-0.5-0.5s0.224-0.5 0.5-0.5h3c0.275 0 0.5 0.224 0.5 0.5v3c0 0.276-0.225 0.5-0.5 0.5zM20.5 27h-3c-0.276 0-0.5-0.224-0.5-0.5s0.224-0.5 0.5-0.5h3c0.275 0 0.5 0.224 0.5 0.5s-0.225 0.5-0.5 0.5zM20.5 6h-3c-0.276 0-0.5-0.224-0.5-0.5s0.224-0.5 0.5-0.5h3c0.275 0 0.5 0.224 0.5 0.5s-0.225 0.5-0.5 0.5zM19.938 15c0.552 0 1 0.447 1 1 0 0.552-0.448 1-1 1h-3v3c0 0.552-0.448 1-1 1-0.553 0-1-0.448-1-1v-3h-3c-0.552 0-1-0.448-1-1 0-0.553 0.447-1 1-1h3v-3c0-0.553 0.447-1 1-1 0.552 0 1 0.447 1 1v3h3zM14.5 6h-3c-0.276 0-0.5-0.224-0.5-0.5s0.224-0.5 0.5-0.5h3c0.275 0 0.5 0.224 0.5 0.5s-0.225 0.5-0.5 0.5zM8.5 27h-3c-0.276 0-0.5-0.224-0.5-0.5v-3c0-0.276 0.224-0.5 0.5-0.5s0.5 0.224 0.5 0.5v2.5h2.5c0.276 0 0.5 0.224 0.5 0.5s-0.224 0.5-0.5 0.5zM8.5 6h-2.5v2.5c0 0.276-0.224 0.5-0.5 0.5s-0.5-0.224-0.5-0.5v-3c0-0.276 0.224-0.5 0.5-0.5h3c0.276 0 0.5 0.224 0.5 0.5s-0.224 0.5-0.5 0.5zM5.5 11c0.276 0 0.5 0.224 0.5 0.5v3c0 0.276-0.224 0.5-0.5 0.5s-0.5-0.224-0.5-0.5v-3c0-0.276 0.224-0.5 0.5-0.5zM5.5 17c0.276 0 0.5 0.224 0.5 0.5v3c0 0.276-0.224 0.5-0.5 0.5s-0.5-0.224-0.5-0.5v-3c0-0.276 0.224-0.5 0.5-0.5zM11.5 26h3c0.275 0 0.5 0.224 0.5 0.5s-0.225 0.5-0.5 0.5h-3c-0.276 0-0.5-0.224-0.5-0.5s0.224-0.5 0.5-0.5z"></path>
</symbol>
<symbol id="icon-minus" viewBox="0 0 32 32">
<path d="M8.5 5h-3c-0.276 0-0.5 0.224-0.5 0.5v3c0 0.276 0.224 0.5 0.5 0.5s0.5-0.224 0.5-0.5v-2.5h2.5c0.276 0 0.5-0.224 0.5-0.5s-0.224-0.5-0.5-0.5zM11.5 6h3c0.275 0 0.5-0.224 0.5-0.5s-0.225-0.5-0.5-0.5h-3c-0.276 0-0.5 0.224-0.5 0.5s0.224 0.5 0.5 0.5zM20.5 5h-3c-0.276 0-0.5 0.224-0.5 0.5s0.224 0.5 0.5 0.5h3c0.275 0 0.5-0.224 0.5-0.5s-0.225-0.5-0.5-0.5zM26.5 5h-3c-0.276 0-0.5 0.224-0.5 0.5s0.224 0.5 0.5 0.5h2.5v2.5c0 0.276 0.224 0.5 0.5 0.5 0.275 0 0.5-0.224 0.5-0.5v-3c0-0.276-0.225-0.5-0.5-0.5zM26.5 11c-0.276 0-0.5 0.224-0.5 0.5v3c0 0.276 0.224 0.5 0.5 0.5 0.275 0 0.5-0.224 0.5-0.5v-3c0-0.276-0.225-0.5-0.5-0.5zM26.5 17c-0.276 0-0.5 0.224-0.5 0.5v3c0 0.276 0.224 0.5 0.5 0.5 0.275 0 0.5-0.224 0.5-0.5v-3c0-0.276-0.225-0.5-0.5-0.5zM26.5 23c-0.276 0-0.5 0.224-0.5 0.5v2.5h-2.5c-0.276 0-0.5 0.224-0.5 0.5s0.224 0.5 0.5 0.5h3c0.275 0 0.5-0.224 0.5-0.5v-3c0-0.276-0.225-0.5-0.5-0.5zM20.5 26h-3c-0.276 0-0.5 0.224-0.5 0.5s0.224 0.5 0.5 0.5h3c0.275 0 0.5-0.224 0.5-0.5s-0.225-0.5-0.5-0.5zM14.5 26h-3c-0.276 0-0.5 0.224-0.5 0.5s0.224 0.5 0.5 0.5h3c0.275 0 0.5-0.224 0.5-0.5s-0.225-0.5-0.5-0.5zM8.5 26h-2.5v-2.5c0-0.276-0.224-0.5-0.5-0.5s-0.5 0.224-0.5 0.5v3c0 0.276 0.224 0.5 0.5 0.5h3c0.276 0 0.5-0.224 0.5-0.5s-0.224-0.5-0.5-0.5zM5.5 21c0.276 0 0.5-0.224 0.5-0.5v-3c0-0.276-0.224-0.5-0.5-0.5s-0.5 0.224-0.5 0.5v3c0 0.276 0.224 0.5 0.5 0.5zM5.5 15c0.276 0 0.5-0.224 0.5-0.5v-3c0-0.276-0.224-0.5-0.5-0.5s-0.5 0.224-0.5 0.5v3c0 0.276 0.224 0.5 0.5 0.5zM11.938 17h8c0.553 0 1-0.448 1-1 0-0.553-0.447-1-1-1h-8c-0.553 0-1 0.447-1 1 0 0.552 0.447 1 1 1z"></path>
</symbol>
</defs>
</svg>
